<?xml version="1.0" encoding="utf-8"?>
<!-- Generator: Adobe Illustrator 25.0.1, SVG Export Plug-In . SVG Version: 6.00 Build 0)  -->
<svg version="1.1" id="Ebene_1" xmlns="http://www.w3.org/2000/svg" xmlns:xlink="http://www.w3.org/1999/xlink" x="0px" y="0px"
	 viewBox="0 0 50 50" style="enable-background:new 0 0 50 50;" xml:space="preserve">
<style type="text/css">
	.st0{fill:#FFFFFF;}
	.st1{fill:#FF844C;}
	.st2{fill:#FFFF74;}
	.st3{fill:#FFB074;}
</style>
<path class="st0" d="M30.7,14.8c0-0.8-0.3-1.6-0.9-2.1c-0.5-0.5-1.3-0.9-2.1-0.9h-5.3c-0.8,0-1.6,0.3-2.1,0.9
	c-0.5,0.5-0.9,1.3-0.9,2.1c0,0.1-0.1,1.4,0,1.4l0,0h11.2l0,0C30.8,16,30.7,14.9,30.7,14.8z M22.7,16.1"/>
<g>
	<g>
		<path class="st0" d="M11.3,25.9L11.3,25.9c0,1.7,1.6,3,2.9,3h21.6c1.3,0,2.8-1.4,2.8-3l0,0c0-1.7-1.5-3-2.8-3H14.2
			C12.9,22.9,11.3,24.3,11.3,25.9z"/>
	</g>
</g>
<path class="st0" d="M13.5,28.6v13.2c0,2.5,2.1,4.5,4.8,4.5h13.2c2.7,0,4.8-2,4.8-4.5V28.6H13.5z M20.7,41.8c0,1-0.8,1.8-1.8,1.8
	s-1.8-0.8-1.8-1.8v-9.1c0-1,0.8-1.8,1.8-1.8s1.8,0.8,1.8,1.8V41.8z M26.7,41.8c0,1-0.8,1.8-1.8,1.8c-1,0-1.8-0.8-1.8-1.8v-9.1
	c0-1,0.8-1.8,1.8-1.8c1,0,1.8,0.8,1.8,1.8V41.8z M32.7,41.8c0,1-0.8,1.8-1.8,1.8c-1,0-1.8-0.8-1.8-1.8v-9.1c0-1,0.8-1.8,1.8-1.8
	c1,0,1.8,0.8,1.8,1.8V41.8z"/>
<path class="st0" d="M35.5,19.6H14.4c-0.5,0-0.8-0.4-0.8-0.8v-0.3c0-1.8,1.5-3.3,3.3-3.3H33c1.8,0,3.3,1.5,3.3,3.3v0.3
	C36.3,19.2,35.9,19.6,35.5,19.6z"/>
<path class="st0" d="M35.7,19.6H14.2c-0.3,0-0.6-0.3-0.6-0.6v-0.1c0-0.3,0.3-0.6,0.6-0.6h21.5c0.3,0,0.6,0.3,0.6,0.6V19
	C36.3,19.3,36,19.6,35.7,19.6z"/>
<path class="st0" d="M-58.3,8.1c0-0.8-0.3-1.6-0.9-2.1c-0.5-0.5-1.3-0.9-2.1-0.9h-5.3c-0.8,0-1.6,0.3-2.1,0.9
	c-0.5,0.5-0.9,1.3-0.9,2.1c0,0.1-0.1,1.4,0,1.4l0,0h11.2l0,0C-58.2,9.3-58.3,8.2-58.3,8.1z M-60.7,9c-0.2,0.2-0.6,0.4-1,0.4h-4.6
	c-0.7,0-1.4-0.6-1.4-1.4c0-0.4,0.2-0.7,0.4-1c0.2-0.2,0.6-0.4,1-0.4h4.6c0.7,0,1.4,0.6,1.4,1.4C-60.3,8.4-60.5,8.8-60.7,9z"/>
<g>
	<g>
		<path class="st1" d="M-77.3,18.5L-77.3,18.5c0,1.7,1.6,3,2.9,3h21.6c1.3,0,2.8-1.4,2.8-3l0,0c0-1.7-1.5-3-2.8-3h-21.6
			C-75.7,15.5-77.3,16.9-77.3,18.5z"/>
	</g>
</g>
<path class="st0" d="M-75,21.3v13.2c0,2.5,2.1,4.5,4.8,4.5H-57c2.7,0,4.8-2,4.8-4.5V21.3H-75z M-68.4,35.3c0,0.7-0.6,1.2-1.3,1.2
	s-1.3-0.6-1.3-1.2V22.9c0-0.7,0.6-1.2,1.3-1.2c0.4,0,0.7,0.1,0.9,0.4c0.2,0.2,0.4,0.5,0.4,0.9V35.3z M-62.4,35.3
	c0,0.7-0.6,1.2-1.3,1.2s-1.3-0.6-1.3-1.2V22.9c0-0.7,0.6-1.2,1.3-1.2c0.4,0,0.7,0.1,0.9,0.4c0.2,0.2,0.4,0.5,0.4,0.9
	C-62.4,23-62.4,35.3-62.4,35.3z M-56.3,35.3c0,0.7-0.6,1.2-1.3,1.2s-1.3-0.6-1.3-1.2V22.9c0-0.7,0.6-1.2,1.3-1.2
	c0.4,0,0.7,0.1,0.9,0.4c0.2,0.2,0.4,0.5,0.4,0.9C-56.3,23-56.3,35.3-56.3,35.3z"/>
<path class="st0" d="M-53.1,13.8h-21.1c-0.5,0-0.8-0.4-0.8-0.8v-0.3c0-1.8,1.5-3.3,3.3-3.3h16.1c1.8,0,3.3,1.5,3.3,3.3V13
	C-52.3,13.4-52.7,13.8-53.1,13.8z"/>
<path class="st0" d="M-52.9,13.4h-21.5c-0.3,0-0.6-0.3-0.6-0.6v-0.1c0-0.3,0.3-0.6,0.6-0.6h21.5c0.3,0,0.6,0.3,0.6,0.6v0.1
	C-52.3,13.1-52.6,13.4-52.9,13.4z"/>
<path class="st0" d="M28.9,14.7"/>
<path class="st2" d="M164.5,0.8c0-0.8-0.3-1.6-0.9-2.1c-0.5-0.5-1.3-0.9-2.1-0.9h-5.3c-0.8,0-1.6,0.3-2.1,0.9
	c-0.5,0.5-0.9,1.3-0.9,2.1c0,0.1-0.1,1.4,0,1.4l0,0h11.2l0,0C164.6,2,164.5,0.9,164.5,0.8z M156.5,2.1"/>
<g>
	<g>
		<path class="st2" d="M145.5,10.3L145.5,10.3c0,1.7,1.6,3,2.9,3H170c1.3,0,2.8-1.4,2.8-3l0,0c0-1.7-1.5-3-2.8-3h-21.6
			C147.1,7.3,145.5,8.7,145.5,10.3z"/>
	</g>
</g>
<path class="st2" d="M169.7,5.2h-21.1c-0.5,0-0.8-0.4-0.8-0.8V4.1c0-1.8,1.5-3.3,3.3-3.3h16.1c1.8,0,3.3,1.5,3.3,3.3v0.3
	C170.5,4.8,170.1,5.2,169.7,5.2z"/>
<path class="st2" d="M169.9,5.2h-21.5c-0.3,0-0.6-0.3-0.6-0.6V4.5c0-0.3,0.3-0.6,0.6-0.6h21.5c0.3,0,0.6,0.3,0.6,0.6v0.1
	C170.5,4.9,170.2,5.2,169.9,5.2z"/>
<path class="st2" d="M162.5,0.8"/>
<path class="st3" d="M147.8,13.3v13.2c0,2.5,2.1,4.5,4.8,4.5h13.2c2.7,0,4.8-2,4.8-4.5V13.3H147.8z M154.4,27.3
	c0,0.7-0.6,1.2-1.3,1.2c-0.7,0-1.3-0.6-1.3-1.2V14.9c0-0.7,0.6-1.2,1.3-1.2c0.4,0,0.7,0.1,0.9,0.4c0.2,0.2,0.4,0.5,0.4,0.9V27.3z
	 M160.4,27.3c0,0.7-0.6,1.2-1.3,1.2c-0.7,0-1.3-0.6-1.3-1.2V14.9c0-0.7,0.6-1.2,1.3-1.2c0.4,0,0.7,0.1,0.9,0.4
	c0.2,0.2,0.4,0.5,0.4,0.9V27.3z M166.5,27.3c0,0.7-0.6,1.2-1.3,1.2s-1.3-0.6-1.3-1.2V14.9c0-0.7,0.6-1.2,1.3-1.2
	c0.4,0,0.7,0.1,0.9,0.4c0.2,0.2,0.4,0.5,0.4,0.9V27.3z"/>
</svg>
